<svg width="155" height="140" viewBox="0 0 155 140" fill="none" xmlns="http://www.w3.org/2000/svg">
<g clip-path="url(#clip0_25_2777)">
<path d="M107.147 139.647H63.3365C56.7656 139.647 51.4197 134.301 51.4197 127.73V11.9169C51.4197 5.34592 56.7656 0 63.3365 0H107.147C113.717 0 119.063 5.34592 119.063 11.9169C119.879 58.424 121.27 110.505 119.063 127.73C119.063 134.301 113.717 139.647 107.147 139.647Z" fill="#3F3D56"/>
<path d="M119.674 42.6001C119.396 42.6001 119.17 42.8262 119.17 43.1042V59.2368C119.17 59.5148 119.396 59.7409 119.674 59.7409C119.952 59.7409 120.178 59.5148 120.178 59.2368V43.1042C120.178 42.8262 119.952 42.6001 119.674 42.6001Z" fill="#3F3D56"/>
<path d="M117.929 11.9169V127.728C117.929 133.448 113.478 138.126 107.849 138.489H107.846C107.763 138.494 107.68 138.499 107.594 138.502C107.446 138.509 107.297 138.512 107.146 138.512C107.146 138.512 106.591 138.472 105.578 138.396C104.554 138.32 103.065 138.207 101.207 138.058C100.65 138.015 100.062 137.967 99.4423 137.917C98.2072 137.816 96.851 137.705 95.3966 137.579C94.8168 137.531 94.2169 137.478 93.6044 137.426C90.4736 137.156 86.9673 136.841 83.2695 136.483C82.6443 136.425 82.0141 136.364 81.3789 136.301C81.2126 136.284 52.5542 129.079 52.5542 127.728V11.9169C52.5542 5.96046 57.3814 1.1333 63.3378 1.1333H69.7757C70.8041 1.1333 71.6309 1.93488 71.7192 2.96082C71.7267 3.02888 71.7343 3.09693 71.7469 3.16499C71.9334 4.19597 72.8787 4.91437 73.9273 4.91437H96.5561C97.6047 4.91437 98.55 4.19597 98.7365 3.16499C98.7491 3.09693 98.7567 3.02888 98.7643 2.96082C98.8525 1.93489 99.6793 1.1333 100.708 1.1333H107.146C113.102 1.1333 117.929 5.96046 117.929 11.9169Z" fill="white"/>
<path d="M51.1677 30.5007C50.8897 30.5007 50.6636 30.7268 50.6636 31.0049V35.038C50.6636 35.3161 50.8897 35.5422 51.1677 35.5422C51.4458 35.5422 51.6719 35.3161 51.6719 35.038V31.0049C51.6719 30.7268 51.4458 30.5007 51.1677 30.5007Z" fill="#3F3D56"/>
<path d="M51.1677 42.6001C50.8897 42.6001 50.6636 42.8262 50.6636 43.1042V50.9184C50.6636 51.1965 50.8897 51.4226 51.1677 51.4226C51.4458 51.4226 51.6719 51.1965 51.6719 50.9184V43.1042C51.6719 42.8262 51.4458 42.6001 51.1677 42.6001Z" fill="#3F3D56"/>
<path d="M51.1677 53.6912C50.8897 53.6912 50.6636 53.9173 50.6636 54.1953V62.0095C50.6636 62.2875 50.8897 62.5137 51.1677 62.5137C51.4458 62.5137 51.6719 62.2875 51.6719 62.0095V54.1953C51.6719 53.9173 51.4458 53.6912 51.1677 53.6912Z" fill="#3F3D56"/>
<path d="M69.6102 2.89893H59.949C59.9022 2.89893 59.8643 2.93688 59.8643 2.9837V4.07451C59.8643 4.12132 59.9022 4.15928 59.949 4.15928H69.6102C69.6571 4.15928 69.695 4.12132 69.695 4.07451V2.9837C69.695 2.93688 69.6571 2.89893 69.6102 2.89893Z" fill="#E6E6E6"/>
<path d="M102.301 4.15915C102.858 4.15915 103.309 3.70772 103.309 3.15086C103.309 2.594 102.858 2.14258 102.301 2.14258C101.744 2.14258 101.292 2.594 101.292 3.15086C101.292 3.70772 101.744 4.15915 102.301 4.15915Z" fill="#E6E6E6"/>
<path d="M105.073 4.15915C105.63 4.15915 106.082 3.70772 106.082 3.15086C106.082 2.594 105.63 2.14258 105.073 2.14258C104.517 2.14258 104.065 2.594 104.065 3.15086C104.065 3.70772 104.517 4.15915 105.073 4.15915Z" fill="#E6E6E6"/>
<path d="M107.846 4.15915C108.403 4.15915 108.854 3.70772 108.854 3.15086C108.854 2.594 108.403 2.14258 107.846 2.14258C107.289 2.14258 106.838 2.594 106.838 3.15086C106.838 3.70772 107.289 4.15915 107.846 4.15915Z" fill="#E6E6E6"/>
<path d="M4.36304 139.675C4.36304 139.855 4.50788 140 4.68826 140H154.525C154.705 140 154.85 139.855 154.85 139.675C154.85 139.494 154.705 139.35 154.525 139.35H4.68826C4.50788 139.35 4.36304 139.494 4.36304 139.675Z" fill="#CCCCCC"/>
<path d="M52.1374 137.539L49.0647 137.539L47.603 125.687L52.138 125.687L52.1374 137.539Z" fill="#FFB6B6"/>
<path d="M41.61 137.469C41.5144 137.63 41.4639 138.15 41.4639 138.338C41.4639 138.914 41.9308 139.381 42.5067 139.381H52.0225C52.4154 139.381 52.7339 139.062 52.7339 138.669V138.273C52.7339 138.273 53.2047 137.082 52.2355 135.615C52.2355 135.615 51.031 136.764 49.2311 134.964L48.7003 134.002L44.8583 136.812L42.7287 137.074C42.2628 137.132 41.8497 137.066 41.61 137.469Z" fill="#2F2E41"/>
<path d="M35.1449 121.077L32.0723 121.067L30.6482 109.21L35.1832 109.225L35.1449 121.077Z" fill="#FFB6B6"/>
<path d="M24.6179 120.974C24.5217 121.135 24.4696 121.654 24.469 121.842C24.4672 122.418 24.9326 122.886 25.5086 122.888L35.0243 122.918C35.4172 122.919 35.7367 122.602 35.738 122.209L35.7392 121.813C35.7392 121.813 36.2137 120.624 35.2492 119.153C35.2492 119.153 34.0411 120.298 32.2469 118.493L31.7192 117.53L27.8682 120.327L25.7378 120.583C25.2717 120.638 24.8588 120.571 24.6179 120.974Z" fill="#2F2E41"/>
<path d="M47.656 65.5872L43.8301 65.8604C43.8301 65.8604 30.8779 73.2246 29.7847 74.8643C28.6916 76.504 27.1886 78.8268 28.555 81.2864C29.9214 83.7459 28.8814 113.526 28.8814 113.526L35.4108 112.049L39.5943 80.8908L48.3392 79.661C48.3392 79.661 51.3453 86.1466 50.2522 91.5121C49.159 96.8777 48.6125 100.157 48.6125 100.157L47.2461 131.857L52.575 131.721L57.3574 102.343L65.5558 79.1145L54.8979 66.5436L47.656 65.5872Z" fill="#2F2E41"/>
<path d="M66.5123 31.9736L58.5872 32.7935L57.7673 35.5263L50.1155 39.6255L52.575 56.8421L50.662 59.8481L51.4819 62.8542C51.4819 62.8542 49.2957 63.1275 49.5689 64.7672L44.6499 65.587C44.6499 65.587 51.1742 66.919 52.5578 73.4949C53.9414 80.0708 65.4191 80.8906 65.4191 80.8906L74.4374 52.7429L75.2572 36.0728L68.9718 34.4331L66.5123 31.9736Z" fill="#E6E6E6"/>
<path d="M62.3356 30.9366C65.7381 30.9366 68.4964 28.1783 68.4964 24.7758C68.4964 21.3733 65.7381 18.615 62.3356 18.615C58.9331 18.615 56.1748 21.3733 56.1748 24.7758C56.1748 28.1783 58.9331 30.9366 62.3356 30.9366Z" fill="#FFB6B6"/>
<path d="M59.1337 30.3339C59.1337 30.3339 53.6681 30.0606 54.2147 25.6881C52.8619 21.0319 54.0593 18.0087 58.3138 16.9432C58.3138 16.9432 59.407 16.6699 59.6802 16.6699C63.2747 16.6699 65.1458 17.763 65.1458 17.763C65.1458 17.763 64.8726 16.6807 65.1458 16.9486C65.4191 17.2165 65.6924 17.763 65.6924 17.763C65.6924 17.763 68.4252 19.1294 68.4252 21.8622C68.4252 24.595 68.4252 23.5019 68.4252 23.5019C68.4252 23.5019 67.8786 23.5019 67.3321 21.8622C66.7855 20.2226 63.2469 21.3157 63.2469 21.3157L63.5062 21.8622L62.6863 21.589L61.8665 22.4088L61.3199 22.1355C61.3199 22.1355 59.1337 22.1355 59.407 22.1355C59.6802 22.1355 59.4898 23.9927 59.4898 23.9927L57.494 26.2347L59.6802 30.3339H59.1337Z" fill="#2F2E41"/>
<path d="M30.0146 62.951C28.4588 63.8002 27.6355 65.2912 28.1759 66.2813C28.7163 67.2714 30.4156 67.3856 31.9715 66.5365C32.6525 66.1648 33.1932 65.6701 33.5406 65.1483L40.0881 61.4674L38.2954 58.4316L32.031 62.3824C31.4042 62.3923 30.6957 62.5793 30.0146 62.951Z" fill="#FFB6B6"/>
<path d="M52.095 39.7532C52.095 39.7532 49.5283 38.7759 48.644 39.9522C47.7597 41.1286 41.9178 55.4021 41.9178 55.4021L33.3467 59.8784L35.757 64.0757L46.794 60.4011L54.076 47.0832L52.095 39.7532Z" fill="#E6E6E6"/>
<path d="M133.033 86.6289V115.597C133.033 118.158 130.949 120.242 128.387 120.242H56.7876C54.2259 120.242 52.1418 118.158 52.1418 115.597V86.6289C52.1418 84.0672 54.2259 81.9832 56.7876 81.9832H128.387C130.949 81.9832 133.033 84.0672 133.033 86.6289Z" fill="white"/>
<path d="M133.033 86.6289V115.597C133.033 118.158 130.949 120.242 128.387 120.242H56.7876C54.2259 120.242 52.1418 118.158 52.1418 115.597V86.6289C52.1418 84.0672 54.2259 81.9832 56.7876 81.9832H128.387C130.949 81.9832 133.033 84.0672 133.033 86.6289ZM128.387 119.696C130.651 119.696 132.486 117.86 132.486 115.597V100.992C132.486 90.7956 124.22 82.5297 114.023 82.5297H56.7876C54.5237 82.5297 52.6884 84.365 52.6884 86.6289V115.597C52.6884 117.86 54.5237 119.696 56.7876 119.696H128.387Z" fill="#3F3D56"/>
<path d="M84.2823 99.4844H74.9305C74.6948 99.4844 74.5029 99.6761 74.5029 99.9119C74.5029 100.148 74.6948 100.34 74.9305 100.34H84.2823C84.5181 100.34 84.7098 100.148 84.7098 99.9119C84.7098 99.6761 84.5181 99.4844 84.2823 99.4844Z" fill="#40C4FF"/>
<path d="M98.4928 99.4844H89.141C88.9052 99.4844 88.7134 99.6761 88.7134 99.9119C88.7134 100.148 88.9052 100.34 89.141 100.34H98.4928C98.7285 100.34 98.9203 100.148 98.9203 99.9119C98.9203 99.6761 98.7285 99.4844 98.4928 99.4844Z" fill="#40C4FF"/>
<path d="M84.2823 104.159H74.9305C74.6948 104.159 74.5029 104.351 74.5029 104.587C74.5029 104.822 74.6948 105.014 74.9305 105.014H84.2823C84.5181 105.014 84.7098 104.822 84.7098 104.587C84.7098 104.351 84.5181 104.159 84.2823 104.159Z" fill="#40C4FF"/>
<path d="M98.4928 104.159H89.141C88.9052 104.159 88.7134 104.351 88.7134 104.587C88.7134 104.822 88.9052 105.014 89.141 105.014H98.4928C98.7285 105.014 98.9203 104.822 98.9203 104.587C98.9203 104.351 98.7285 104.159 98.4928 104.159Z" fill="#40C4FF"/>
<path d="M113.131 104.587C113.131 104.351 112.939 104.159 112.703 104.159H103.352C103.116 104.159 102.924 104.351 102.924 104.587C102.924 104.822 103.116 105.014 103.352 105.014H112.703C112.939 105.014 113.131 104.822 113.131 104.587Z" fill="#40C4FF"/>
<path d="M78.8167 95.7516C79.0525 95.7516 79.2443 95.5598 79.2443 95.324C79.2443 95.0882 79.0525 94.8965 78.8167 94.8965H69.465C69.2292 94.8965 69.0374 95.0882 69.0374 95.324C69.0374 95.5598 69.2292 95.7516 69.465 95.7516H78.8167Z" fill="#40C4FF"/>
<path d="M106.358 95.5778H115.71C115.945 95.5778 116.137 95.3859 116.137 95.1502C116.137 94.9144 115.945 94.7227 115.71 94.7227H106.358C106.122 94.7227 105.93 94.9144 105.93 95.1502C105.93 95.3859 106.122 95.5778 106.358 95.5778Z" fill="#40C4FF"/>
<path d="M82.7565 95.6676H102.145C102.381 95.6676 102.572 95.4758 102.572 95.24C102.572 95.0042 102.381 94.8125 102.145 94.8125H82.7565C82.5207 94.8125 82.3289 95.0042 82.3289 95.24C82.3289 95.4758 82.5207 95.6676 82.7565 95.6676Z" fill="#40C4FF"/>
<path d="M90.3849 108.406H81.0331C80.7973 108.406 80.6055 108.598 80.6055 108.834C80.6055 109.07 80.7973 109.261 81.0331 109.261H90.3849C90.6206 109.261 90.8124 109.07 90.8124 108.834C90.8124 108.598 90.6206 108.406 90.3849 108.406Z" fill="#40C4FF"/>
<path d="M120.588 86.4104V115.378C120.588 117.94 118.504 120.024 115.942 120.024H86.9746C84.4129 120.024 82.3289 117.94 82.3289 115.378V86.4104C82.3289 83.8487 84.4129 81.7646 86.9746 81.7646H115.942C118.504 81.7646 120.588 83.8487 120.588 86.4104Z" fill="white"/>
<path d="M120.588 86.4104V115.378C120.588 117.94 118.504 120.024 115.942 120.024H86.9746C84.4129 120.024 82.3289 117.94 82.3289 115.378V86.4104C82.3289 83.8487 84.4129 81.7646 86.9746 81.7646H115.942C118.504 81.7646 120.588 83.8487 120.588 86.4104ZM114.145 119.477C117.402 119.477 120.041 116.837 120.041 113.581V100.774C120.041 90.5772 111.775 82.3112 101.579 82.3112H86.9746C84.7107 82.3112 82.8754 84.1465 82.8754 86.4104V111.336C82.8754 115.832 86.5202 119.477 91.0162 119.477L114.145 119.477Z" fill="#3F3D56"/>
<path d="M105.315 93.5956H95.9628C95.727 93.5956 95.5352 93.4038 95.5352 93.168C95.5352 92.9322 95.727 92.7405 95.9628 92.7405H105.315C105.55 92.7405 105.742 92.9322 105.742 93.168C105.742 93.4038 105.55 93.5956 105.315 93.5956Z" fill="#40C4FF"/>
<path d="M105.315 102.713H95.9628C95.727 102.713 95.5352 102.521 95.5352 102.285C95.5352 102.05 95.727 101.858 95.9628 101.858H105.315C105.55 101.858 105.742 102.05 105.742 102.285C105.742 102.521 105.55 102.713 105.315 102.713Z" fill="#40C4FF"/>
<path d="M100.669 115.284H91.317C91.0812 115.284 90.8894 115.092 90.8894 114.856C90.8894 114.621 91.0812 114.429 91.317 114.429H100.669C100.905 114.429 101.096 114.621 101.096 114.856C101.096 115.092 100.905 115.284 100.669 115.284Z" fill="#40C4FF"/>
<path d="M110.333 98.1574H90.9444C90.7087 98.1574 90.5168 97.9655 90.5168 97.7298C90.5168 97.494 90.7087 97.3022 90.9444 97.3022H110.333C110.569 97.3022 110.76 97.494 110.76 97.7298C110.76 97.9655 110.569 98.1574 110.333 98.1574Z" fill="#40C4FF"/>
<path d="M115.137 70.3588C115.137 61.3223 107.5 56.3512 98.7753 53.9967C87.5897 50.978 79.3976 57.0864 82.4131 70.3588C83.0965 73.3669 84.7312 76.8802 86.7545 79.8854H102.811C108.174 76.3937 115.137 77.3729 115.137 70.3588Z" fill="#40C4FF"/>
<path d="M98.535 87.4416C99.4484 85.7004 100.606 84.4442 101.882 83.488H86.8435C90.7141 89.017 95.8472 92.5654 98.535 87.4416Z" fill="#40C4FF"/>
<path d="M96.7997 60.6849C97.7652 60.6849 98.5478 61.4675 98.5478 62.433V65.9292H95.0516V62.433C95.0516 61.4675 95.8343 60.6849 96.7997 60.6849ZM99.4219 65.9292V62.433C99.4219 60.9848 98.2479 59.8108 96.7997 59.8108C95.3515 59.8108 94.1776 60.9848 94.1776 62.433V65.9292C93.2121 65.9292 92.4294 66.7118 92.4294 67.6773V72.0476C92.4294 73.013 93.2121 73.7957 94.1776 73.7957H99.4219C100.387 73.7957 101.17 73.013 101.17 72.0476V67.6773C101.17 66.7118 100.387 65.9292 99.4219 65.9292ZM94.1776 66.8032H99.4219C99.9046 66.8032 100.296 67.1946 100.296 67.6773V72.0476C100.296 72.5303 99.9046 72.9216 99.4219 72.9216H94.1776C93.6948 72.9216 93.3035 72.5303 93.3035 72.0476V67.6773C93.3035 67.1946 93.6948 66.8032 94.1776 66.8032Z" fill="white"/>
<path d="M71.8182 81.0392C71.6074 82.7991 72.3445 84.3345 73.4644 84.4687C74.5844 84.6028 75.6632 83.2848 75.8739 81.5249C75.9662 80.7545 75.8768 80.0272 75.6532 79.4415L76.4528 71.9729L72.94 71.6724L72.5246 79.0668C72.1691 79.5831 71.9105 80.2688 71.8182 81.0392Z" fill="#FFB6B6"/>
<path d="M72.6611 36.4829C72.6611 36.4829 76.487 35.3898 77.3068 37.0295C78.1267 38.6691 80.0396 60.2582 80.0396 60.2582L76.3503 77.491L72.1145 76.3817L74.3008 58.8918L71.2947 45.7744L72.6611 36.4829Z" fill="#E6E6E6"/>
<path d="M16.438 88.9087C25.2673 88.9087 32.4249 81.7512 32.4249 72.9219C32.4249 64.0926 25.2673 56.9351 16.438 56.9351C7.60873 56.9351 0.451172 64.0926 0.451172 72.9219C0.451172 81.7512 7.60873 88.9087 16.438 88.9087Z" fill="#40C4FF"/>
<path d="M16.438 65.7651C17.5673 65.7651 18.4828 66.6806 18.4828 67.8099V71.8996H14.3932V67.8099C14.3932 66.6806 15.3087 65.7651 16.438 65.7651ZM19.5053 71.8996V67.8099C19.5053 66.1159 18.132 64.7427 16.438 64.7427C14.744 64.7427 13.3708 66.1159 13.3708 67.8099V71.8996C12.2414 71.8996 11.3259 72.8151 11.3259 73.9444V79.0565C11.3259 80.1858 12.2414 81.1013 13.3708 81.1013H19.5052C20.6346 81.1013 21.5501 80.1858 21.5501 79.0565V73.9444C21.5501 72.8151 20.6346 71.8996 19.5053 71.8996ZM13.3708 72.922H19.5052C20.0699 72.922 20.5277 73.3797 20.5277 73.9444V79.0565C20.5277 79.6211 20.0699 80.0789 19.5052 80.0789H13.3708C12.8061 80.0789 12.3483 79.6211 12.3483 79.0565V73.9444C12.3483 73.3797 12.8061 72.922 13.3708 72.922Z" fill="white"/>
</g>
<defs>
<clipPath id="clip0_25_2777">
<rect width="154.399" height="140" fill="white" transform="translate(0.451172)"/>
</clipPath>
</defs>
</svg>
