<svg width="190" height="140" viewBox="0 0 190 140" fill="none" xmlns="http://www.w3.org/2000/svg">
<g clip-path="url(#clip0_25_2743)">
<path d="M18.8756 37.2083C29.1504 37.2083 37.4798 28.879 37.4798 18.6042C37.4798 8.32937 29.1504 0 18.8756 0C8.60085 0 0.271484 8.32937 0.271484 18.6042C0.271484 28.879 8.60085 37.2083 18.8756 37.2083Z" fill="#F0F0F0"/>
<path d="M170.847 78.8995C181.122 78.8995 189.451 70.5701 189.451 60.2953C189.451 50.0205 181.122 41.6912 170.847 41.6912C160.572 41.6912 152.243 50.0205 152.243 60.2953C152.243 70.5701 160.572 78.8995 170.847 78.8995Z" fill="#F0F0F0"/>
<path d="M112.729 138.494L109.459 137.116L107.215 120.72H77.335L74.9029 137.049L71.9766 138.512C71.8366 138.582 71.7244 138.698 71.658 138.84C71.5917 138.981 71.5752 139.141 71.6111 139.294C71.6471 139.446 71.7334 139.582 71.8562 139.679C71.9789 139.776 72.1309 139.829 72.2874 139.829H112.46C112.62 139.829 112.776 139.773 112.9 139.672C113.024 139.57 113.109 139.429 113.141 139.272C113.173 139.114 113.149 138.951 113.074 138.809C112.999 138.667 112.877 138.556 112.729 138.494Z" fill="#E6E6E6"/>
<path d="M165.828 122.901H19.0501C18.28 122.9 17.542 122.593 16.9981 122.047C16.4542 121.502 16.1487 120.764 16.1487 119.993V99.2959H168.729V119.993C168.729 120.764 168.424 121.502 167.88 122.047C167.336 122.593 166.598 122.9 165.828 122.901Z" fill="#CCCCCC"/>
<path d="M168.883 109.078H16.0146V20.5174C16.0157 19.588 16.3854 18.697 17.0426 18.0398C17.6998 17.3827 18.5908 17.013 19.5202 17.012H165.377C166.306 17.013 167.197 17.3827 167.855 18.0398C168.512 18.697 168.881 19.588 168.883 20.5174V109.078Z" fill="#3F3D56"/>
<path d="M159.752 102.65H25.1449C24.4284 102.649 23.7415 102.364 23.2348 101.858C22.7282 101.351 22.4432 100.664 22.4424 99.9477V26.1421C22.4432 25.4256 22.7282 24.7386 23.2348 24.2319C23.7415 23.7253 24.4284 23.4403 25.1449 23.4395H159.752C160.469 23.4403 161.156 23.7253 161.663 24.2319C162.169 24.7386 162.454 25.4256 162.455 26.1421V99.9477C162.454 100.664 162.169 101.351 161.663 101.858C161.156 102.364 160.469 102.649 159.752 102.65Z" fill="white"/>
<path d="M130.199 140H54.5616C54.4841 140.002 54.4083 139.978 54.3459 139.932C54.2835 139.886 54.2381 139.82 54.2166 139.746C54.2033 139.695 54.2017 139.642 54.2121 139.591C54.2225 139.539 54.2445 139.491 54.2765 139.45C54.3085 139.408 54.3496 139.374 54.3966 139.351C54.4436 139.328 54.4953 139.316 54.5478 139.316H130.171C130.253 139.313 130.333 139.338 130.399 139.387C130.465 139.435 130.512 139.504 130.534 139.583C130.545 139.633 130.545 139.685 130.533 139.735C130.521 139.785 130.499 139.832 130.466 139.872C130.434 139.912 130.394 139.944 130.348 139.966C130.301 139.989 130.251 140 130.199 140Z" fill="#CCCCCC"/>
<path d="M144.495 89.5115H116.134C116.064 89.5175 115.994 89.4955 115.939 89.4503C115.884 89.4052 115.85 89.3404 115.842 89.2699V66.3937C115.85 66.3232 115.884 66.2585 115.939 66.2133C115.994 66.1681 116.064 66.1461 116.134 66.1521H144.495C144.565 66.1461 144.635 66.1681 144.69 66.2133C144.745 66.2585 144.779 66.3232 144.787 66.3937V89.2699C144.779 89.3404 144.745 89.4052 144.69 89.4504C144.635 89.4955 144.565 89.5175 144.495 89.5115Z" fill="#F0F0F0"/>
<path d="M141.412 68.6831H119.217C119.14 68.6832 119.065 68.714 119.011 68.7688C118.956 68.8235 118.925 68.8977 118.925 68.9751V86.1731C118.925 86.2505 118.956 86.3247 119.011 86.3795C119.065 86.4342 119.14 86.465 119.217 86.4651H141.412C141.49 86.465 141.564 86.4342 141.619 86.3795C141.673 86.3247 141.704 86.2505 141.704 86.1731V68.9751C141.704 68.8977 141.673 68.8235 141.619 68.7688C141.564 68.714 141.49 68.6832 141.412 68.6831Z" fill="white"/>
<path d="M129.766 80.3366C131.325 80.3366 132.588 79.0732 132.588 77.5146C132.588 75.9561 131.325 74.6926 129.766 74.6926C128.208 74.6926 126.944 75.9561 126.944 77.5146C126.944 79.0732 128.208 80.3366 129.766 80.3366Z" fill="#FFB8B8"/>
<path d="M133.895 86.465H127.638L127.843 81.8651L127.891 81.814L128.594 81.072H130.828L131.656 81.8742L131.723 81.939L133.486 83.6291L133.895 86.465Z" fill="#40C4FF"/>
<path d="M128.714 86.4652H123.981C123.969 85.4268 123.962 84.8051 123.962 84.8051L124.236 84.6383L124.238 84.6376H124.238L127.255 82.8062L127.888 81.7776L127.891 81.8139L128.078 83.9822C128.078 83.9822 128.385 84.9764 128.714 86.4652Z" fill="#2F2E41"/>
<path d="M136.67 86.4652H131.656C131.732 83.437 131.323 81.7776 131.533 81.7776L131.656 81.8743L133.134 83.0412L135.081 83.7557H135.083L136.425 84.2483L136.661 84.3346V84.4455C136.662 84.7116 136.663 85.4391 136.67 86.4652Z" fill="#2F2E41"/>
<path d="M127.096 78.3975C127.096 78.3975 127.336 77.9764 127.28 76.5698C127.225 75.1631 129.367 75.9587 131.157 75.8245C132.946 75.6903 132.568 78.1729 132.568 78.1729C132.568 78.1729 132.697 78.0254 132.973 76.8272C133.25 75.629 132.622 74.4349 132.622 74.4349C132.437 73.1759 131.441 73.5794 131.441 73.5794C131.567 73.6114 131.676 73.6892 131.748 73.7976C131.82 73.906 131.848 74.0372 131.828 74.1656C131.422 73.4535 130.426 73.857 130.426 73.857C129.097 73.0232 127.75 74.1213 127.75 74.1213C126.145 74.4856 127.087 75.7622 127.087 75.7622C125.472 76.578 127.096 78.3975 127.096 78.3975Z" fill="#2F2E41"/>
<path d="M124.613 86.465H122.668C122.683 86.2253 122.683 85.985 122.669 85.7453C122.553 85.2825 124.187 84.6569 124.236 84.6381L124.238 84.6375H124.238L124.55 84.8049L124.613 86.465Z" fill="#2F2E41"/>
<path d="M137.021 86.465H134.978L134.723 83.947L135.009 83.738C135.009 83.738 135.035 83.7439 135.081 83.7556H135.083C135.549 83.8617 136.001 84.0273 136.425 84.2481C136.516 84.2987 136.595 84.3656 136.661 84.4454C136.701 84.4936 136.721 84.5555 136.717 84.6181C136.706 84.7122 136.826 85.4053 137.021 86.465Z" fill="#2F2E41"/>
<path d="M144.402 60.3236H116.042C115.971 60.3295 115.901 60.3075 115.847 60.2623C115.792 60.2171 115.757 60.1523 115.75 60.0818V37.1975C115.757 37.127 115.792 37.0622 115.847 37.017C115.901 36.9718 115.971 36.9498 116.042 36.9558H144.402C144.473 36.9498 144.543 36.9718 144.598 37.017C144.652 37.0622 144.687 37.127 144.694 37.1975V60.0818C144.687 60.1523 144.652 60.2171 144.598 60.2623C144.543 60.3075 144.473 60.3295 144.402 60.3236Z" fill="#F0F0F0"/>
<path d="M141.32 39.4868H119.125C119.047 39.4869 118.973 39.5177 118.918 39.5725C118.863 39.6272 118.833 39.7014 118.833 39.7789V56.9768C118.833 57.0542 118.863 57.1284 118.918 57.1832C118.973 57.2379 119.047 57.2687 119.125 57.2689H141.32C141.397 57.2687 141.471 57.2379 141.526 57.1832C141.581 57.1284 141.612 57.0542 141.612 56.9768V39.7789C141.612 39.7014 141.581 39.6272 141.526 39.5725C141.471 39.5177 141.397 39.4869 141.32 39.4868Z" fill="white"/>
<path d="M135.685 57.2689C135.81 56.8178 135.908 56.4291 135.958 56.1539C135.973 56.0691 135.975 55.9823 135.962 55.8969C135.775 54.5672 132.399 53.4432 131.967 53.3043L131.862 52.1465L127.613 51.689L127.075 53.1699L125.549 53.7417C125.494 53.7621 125.442 53.7891 125.393 53.8222C125.265 53.9085 125.167 54.032 125.111 54.176C125.056 54.32 125.046 54.4776 125.082 54.6275L125.732 57.2689L135.685 57.2689Z" fill="#40C4FF"/>
<path d="M126.876 57.2688H123.579C123.697 56.5329 123.803 55.882 123.871 55.4679C124.123 53.961 125.221 53.8325 125.393 53.8221C125.407 53.8208 125.415 53.8208 125.416 53.8208H126.11L126.876 57.2688Z" fill="#40C4FF"/>
<path d="M135.685 57.2689H136.485C136.446 56.7709 136.265 56.2946 135.962 55.8969C135.811 55.6966 135.615 55.5339 135.391 55.4212L135.33 55.3953L134.627 57.2689H135.685Z" fill="#40C4FF"/>
<path d="M129.571 50.9561C131.261 50.9561 132.631 49.5862 132.631 47.8964C132.631 46.2066 131.261 44.8367 129.571 44.8367C127.882 44.8367 126.512 46.2066 126.512 47.8964C126.512 49.5862 127.882 50.9561 129.571 50.9561Z" fill="#A0616A"/>
<path d="M127.518 46.4058C127.835 46.7806 128.37 46.8863 128.865 46.9293C130.021 46.9932 131.18 46.8986 132.311 46.648C132.381 47.3269 132.19 48.0588 132.59 48.6173C132.777 47.9412 132.886 47.2458 132.914 46.5448C132.944 46.2441 132.905 45.9405 132.8 45.6572C132.743 45.5152 132.648 45.3919 132.525 45.3013C132.402 45.2107 132.256 45.1563 132.104 45.1445C132.332 44.9716 132.599 44.8575 132.882 44.8122L131.91 44.324L132.16 44.0679L130.401 43.9602L130.91 43.6366C130.143 43.5313 129.367 43.5069 128.595 43.5638C128.234 43.564 127.881 43.6623 127.572 43.8484C127.281 44.0561 127.113 44.4688 127.294 44.7737C127.068 44.8107 126.855 44.9048 126.676 45.047C126.497 45.1892 126.357 45.3747 126.27 45.5861C126.159 45.9221 126.133 46.28 126.192 46.6287C126.258 47.1881 126.388 47.7381 126.579 48.268" fill="#2F2E41"/>
<path d="M40.1104 88.8717V37.125C40.1285 36.9645 40.2087 36.8173 40.334 36.7152C40.4592 36.613 40.6194 36.5639 40.7803 36.5784H105.844C106.005 36.5639 106.165 36.613 106.29 36.7152C106.416 36.8174 106.496 36.9645 106.514 37.125V88.8717C106.496 89.0323 106.416 89.1794 106.29 89.2816C106.165 89.3837 106.005 89.4328 105.844 89.4184H40.7803C40.6194 89.4328 40.4592 89.3837 40.334 89.2816C40.2087 89.1794 40.1285 89.0323 40.1104 88.8717Z" fill="#E4E4E4"/>
<path d="M47.1826 43.055V82.5101C47.1829 82.6878 47.2536 82.858 47.3791 82.9836C47.5047 83.1092 47.675 83.1799 47.8526 83.1801H98.7721C98.9497 83.1799 99.1199 83.1092 99.2455 82.9836C99.3711 82.858 99.4418 82.6878 99.4421 82.5101V43.055C99.4418 42.8774 99.3711 42.7071 99.2455 42.5815C99.1199 42.456 98.9497 42.3853 98.7721 42.385H47.8526C47.675 42.3853 47.5047 42.456 47.3791 42.5815C47.2536 42.7071 47.1829 42.8774 47.1826 43.055Z" fill="white"/>
<path d="M68.3022 83.1802H78.5501L77.9114 73.5949L74.2146 74.448L70.6189 73.0648L70.5236 73.0291L70.5177 73.0261C70.5164 73.029 70.5154 73.032 70.5147 73.035C70.4581 73.2629 69.3296 77.7816 68.3022 83.1802Z" fill="#40C4FF"/>
<path d="M62.1262 75.1596L63.0835 83.18H71.7206L70.6189 73.0647L70.6084 72.9663L70.5236 73.0288L70.5147 73.0349L68.3839 74.5894L62.1262 75.1596Z" fill="#2F2E41"/>
<path d="M77.0344 83.1801H84.7691L84.8808 76.8658L79.1888 74.9779L77.9114 73.5947C77.9114 73.5947 77.5079 77.7561 77.0344 83.1801Z" fill="#2F2E41"/>
<path d="M58.4026 83.1802H64.8122L64.4013 77.4347L62.1263 75.1597C62.1263 75.1597 60.3262 78.9354 58.4026 83.1802Z" fill="#2F2E41"/>
<path d="M82.9453 83.1803H86.3266C86.3117 81.34 86.3027 80.0685 86.3027 79.7097C86.3197 79.155 86.1986 78.6048 85.9505 78.1085C85.7023 77.6121 85.3347 77.1852 84.8808 76.866L83.1731 77.4347L82.9453 83.1803Z" fill="#2F2E41"/>
<path d="M83.4727 70.5786H65.5559V63.0272C65.5559 60.4392 67.3792 57.3277 69.6203 56.0911C72.7658 54.3557 76.2046 54.3252 79.0549 56.0078C80.3965 56.8022 81.5089 57.9313 82.2833 59.2846C83.0577 60.6378 83.4675 62.1689 83.4727 63.7281V70.5786Z" fill="#2F2E41"/>
<path d="M80.5474 67.0252C82.2618 63.8891 81.1092 59.9571 77.9732 58.2427C74.8371 56.5284 70.9051 57.681 69.1907 60.817C67.4764 63.9531 68.629 67.8851 71.765 69.5994C74.9011 71.3138 78.8331 70.1612 80.5474 67.0252Z" fill="#FFB8B8"/>
<path d="M81.0202 64.2549H71.7878L71.7659 64.15C71.6591 63.5997 71.521 63.0559 71.3524 62.5213C70.9858 63.0584 70.6477 63.6144 70.3395 64.1871L70.3019 64.2549H68.507C68.3969 64.2548 68.288 64.2317 68.1873 64.1872C68.0866 64.1426 67.9962 64.0775 67.9221 63.9961C67.8732 63.9424 67.759 63.8165 68.2317 58.0458C68.2447 57.9084 68.2932 57.7767 68.3724 57.6636C68.4516 57.5506 68.5588 57.46 68.6836 57.4009C72.7345 55.5098 76.8395 55.5598 80.8857 57.5503H80.9579L80.9832 57.6507C81.7814 63.7929 81.6666 63.9255 81.6176 63.9821C81.5434 64.0678 81.4516 64.1364 81.3486 64.1835C81.2455 64.2306 81.1335 64.2549 81.0202 64.2549Z" fill="#2F2E41"/>
</g>
<defs>
<clipPath id="clip0_25_2743">
<rect width="189.18" height="140" fill="white" transform="translate(0.271484)"/>
</clipPath>
</defs>
</svg>
