<svg width="170" height="96" viewBox="0 0 170 96" fill="none" xmlns="http://www.w3.org/2000/svg">
<g clip-path="url(#clip0_21_1727)">
<path d="M51.8831 -24.948C51.8831 -28.2617 54.5694 -30.948 57.8831 -30.948H164C167.314 -30.948 170 -28.2617 170 -24.948V48.052C170 51.3657 167.314 54.052 164 54.052H150.61C147.297 54.052 144.61 56.7383 144.61 60.052V81.2366C144.61 83.0184 142.456 83.9107 141.196 82.6508L114.355 55.8094C113.23 54.6841 111.703 54.052 110.112 54.052H57.8831C54.5694 54.052 51.8831 51.3657 51.8831 48.052V-24.948Z" fill="url(#paint0_linear_21_1727)"/>
<g filter="url(#filter0_d_21_1727)">
<path d="M0 -56.9609C0 -60.2746 2.68629 -62.9609 6 -62.9609H112.117C115.431 -62.9609 118.117 -60.2746 118.117 -56.9609V16.0391C118.117 19.3528 115.431 22.0391 112.117 22.0391H61.5142C59.9404 22.0391 58.4296 22.6574 57.3074 23.7609L29.3438 51.2584C28.0791 52.5021 25.9416 51.6061 25.9416 49.8324V28.0391C25.9416 24.7254 23.2553 22.0391 19.9416 22.0391H5.99999C2.68629 22.0391 0 19.3528 0 16.0391V-56.9609Z" fill="url(#paint1_linear_21_1727)"/>
</g>
</g>
<defs>
<filter id="filter0_d_21_1727" x="-20" y="-76.9609" width="158.117" height="154.797" filterUnits="userSpaceOnUse" color-interpolation-filters="sRGB">
<feFlood flood-opacity="0" result="BackgroundImageFix"/>
<feColorMatrix in="SourceAlpha" type="matrix" values="0 0 0 0 0 0 0 0 0 0 0 0 0 0 0 0 0 0 127 0" result="hardAlpha"/>
<feOffset dy="6"/>
<feGaussianBlur stdDeviation="10"/>
<feComposite in2="hardAlpha" operator="out"/>
<feColorMatrix type="matrix" values="0 0 0 0 0.0509804 0 0 0 0 0.0392157 0 0 0 0 0.172549 0 0 0 0.1 0"/>
<feBlend mode="normal" in2="BackgroundImageFix" result="effect1_dropShadow_21_1727"/>
<feBlend mode="normal" in="SourceGraphic" in2="effect1_dropShadow_21_1727" result="shape"/>
</filter>
<linearGradient id="paint0_linear_21_1727" x1="51.8831" y1="-30.948" x2="165.756" y2="53.6159" gradientUnits="userSpaceOnUse">
<stop stop-color="#1565C0"/>
<stop offset="1" stop-color="#0F4888"/>
</linearGradient>
<linearGradient id="paint1_linear_21_1727" x1="0" y1="-62.9609" x2="114.253" y2="21.4871" gradientUnits="userSpaceOnUse">
<stop stop-color="#40C4FF"/>
<stop offset="1" stop-color="#03A9F4"/>
</linearGradient>
<clipPath id="clip0_21_1727">
<rect width="170" height="96" fill="white"/>
</clipPath>
</defs>
</svg>
