<svg width="190" height="173" viewBox="0 0 190 173" fill="none" xmlns="http://www.w3.org/2000/svg">
<g opacity="0.2">
<path d="M71.8831 52.052C71.8831 48.7383 74.5694 46.052 77.8831 46.052H184C187.314 46.052 190 48.7383 190 52.052V125.052C190 128.366 187.314 131.052 184 131.052H170.61C167.297 131.052 164.61 133.738 164.61 137.052V158.237C164.61 160.018 162.456 160.911 161.196 159.651L134.355 132.809C133.23 131.684 131.703 131.052 130.112 131.052H77.8831C74.5694 131.052 71.8831 128.366 71.8831 125.052V52.052Z" fill="url(#paint0_linear_21_1709)"/>
<g filter="url(#filter0_d_21_1709)">
<path d="M20 20.0391C20 16.7254 22.6863 14.0391 26 14.0391H132.117C135.431 14.0391 138.117 16.7254 138.117 20.0391V93.0391C138.117 96.3528 135.431 99.0391 132.117 99.0391H81.5142C79.9404 99.0391 78.4296 99.6574 77.3074 100.761L49.3438 128.258C48.0791 129.502 45.9416 128.606 45.9416 126.832V105.039C45.9416 101.725 43.2553 99.0391 39.9416 99.0391H26C22.6863 99.0391 20 96.3528 20 93.0391V20.0391Z" fill="url(#paint1_linear_21_1709)"/>
</g>
</g>
<defs>
<filter id="filter0_d_21_1709" x="0" y="0.0390625" width="158.117" height="154.797" filterUnits="userSpaceOnUse" color-interpolation-filters="sRGB">
<feFlood flood-opacity="0" result="BackgroundImageFix"/>
<feColorMatrix in="SourceAlpha" type="matrix" values="0 0 0 0 0 0 0 0 0 0 0 0 0 0 0 0 0 0 127 0" result="hardAlpha"/>
<feOffset dy="6"/>
<feGaussianBlur stdDeviation="10"/>
<feComposite in2="hardAlpha" operator="out"/>
<feColorMatrix type="matrix" values="0 0 0 0 0.0509804 0 0 0 0 0.0392157 0 0 0 0 0.172549 0 0 0 0.1 0"/>
<feBlend mode="normal" in2="BackgroundImageFix" result="effect1_dropShadow_21_1709"/>
<feBlend mode="normal" in="SourceGraphic" in2="effect1_dropShadow_21_1709" result="shape"/>
</filter>
<linearGradient id="paint0_linear_21_1709" x1="71.8831" y1="46.052" x2="185.756" y2="130.616" gradientUnits="userSpaceOnUse">
<stop stop-color="#1565C0"/>
<stop offset="1" stop-color="#0F4888"/>
</linearGradient>
<linearGradient id="paint1_linear_21_1709" x1="20" y1="14.0391" x2="134.253" y2="98.4871" gradientUnits="userSpaceOnUse">
<stop stop-color="#40C4FF"/>
<stop offset="1" stop-color="#03A9F4"/>
</linearGradient>
</defs>
</svg>
